#!OML:ASF C:\Vicon Data\Big\jianyuan-12\jianyuan\Session 1\Capture.male.ASF
:FULLY-SPECIFIED
:DEGREES
251
root -14.825455 17.312961 -7.871407 -8.197907 -52.402502 19.310034
lowerback -7.356219 -3.001281 -10.416793 
upperback 3.000363 -2.747412 -1.795042 
thorax 7.781401 -1.776614 3.531583 
lowerneck 0.136609 -7.981543 -8.032322 
upperneck -5.507751 -10.211684 14.546644 
head -0.427266 -5.183188 5.617117 
rclavicle 0.000000 0.000000 
rhumerus -50.353786 -41.096359 -59.865348 
rradius 28.636154 
rwrist 45.578883 
rhand -19.574936 -4.902292 
rfingers 0.000000 
rthumb 6.750174 -34.774704 
lclavicle 0.000000 0.000000 
lhumerus -13.963037 23.237977 77.234670 
lradius 34.855013 
lwrist -38.326027 
lhand -12.506746 6.290405 
lfingers 0.000000 
lthumb 13.568647 35.828255 
rfemur -38.028169 -1.099555 10.805158 
rtibia 26.436361 
rfoot -18.721042 -14.136594 
rtoes 6.380522 
lfemur 13.176056 -1.433850 -29.399805 
ltibia 0.000000 
lfoot -19.069325 15.442683 
ltoes -39.265566 
252
root -14.903123 17.307657 -7.828476 -8.243643 -52.401578 19.327796
lowerback -7.443525 -3.004326 -10.376023 
upperback 2.980956 -2.746642 -1.790906 
thorax 7.808356 -1.774954 3.510450 
lowerneck 0.197358 -7.994575 -7.981688 
upperneck -5.509325 -10.235591 14.424418 
head -0.445329 -5.196850 5.574458 
rclavicle 0.000000 0.000000 
rhumerus -50.774971 -41.339235 -59.381111 
rradius 28.527019 
rwrist 45.883981 
rhand -19.571895 -4.892725 
rfingers 0.000000 
rthumb 6.753130 -34.765013 
lclavicle 0.000000 0.000000 
lhumerus -14.016315 23.062661 77.330034 
lradius 34.926941 
lwrist -38.347099 
lhand -12.486106 6.309434 
lfingers 0.000000 
lthumb 13.588546 35.845987 
rfemur -37.778918 -1.325997 10.908080 
rtibia 26.761897 
rfoot -18.669054 -14.118655 
rtoes 7.148896 
lfemur 13.510722 -1.387392 -29.327813 
ltibia 0.000000 
lfoot -18.662439 15.384212 
ltoes -39.694597 
253
root -14.987025 17.302676 -7.786266 -8.323525 -52.439622 19.319817
lowerback -7.495166 -2.997825 -10.336583 
upperback 2.977132 -2.736540 -1.785712 
thorax 7.830365 -1.769187 3.493680 
lowerneck 0.205496 -7.998807 -7.935563 
upperneck -5.443576 -10.251320 14.307465 
head -0.435476 -5.203171 5.529973 
rclavicle 0.000000 0.000000 
rhumerus -51.241432 -41.593814 -58.890046 
rradius 28.431893 
rwrist 46.349370 
rhand -19.572911 -4.910855 
rfingers 0.000000 
rthumb 6.752134 -34.783177 
lclavicle 0.000000 0.000000 
lhumerus -14.084286 22.904609 77.385408 
lradius 34.994104 
lwrist -38.319049 
lhand -12.335760 6.227574 
lfingers 0.000000 
lthumb 13.733415 35.754344 
rfemur -37.454751 -1.517630 11.057197 
rtibia 27.105563 
rfoot -18.677083 -14.109012 
rtoes 8.359939 
lfemur 13.911507 -1.297674 -29.214355 
ltibia 0.000000 
lfoot -18.240425 15.355461 
ltoes -40.174671 
254
root -15.075469 17.295091 -7.743115 -8.376235 -52.520160 19.367721
lowerback -7.636066 -2.986289 -10.315968 
upperback 2.962760 -2.706357 -1.786678 
thorax 7.890802 -1.755363 3.480442 
lowerneck 0.204286 -7.972431 -7.924778 
upperneck -5.385318 -10.222598 14.256751 
head -0.425266 -5.187238 5.512278 
rclavicle 0.000000 0.000000 
rhumerus -51.610749 -41.777754 -58.557838 
rradius 28.358242 
rwrist 46.468840 
rhand -19.450914 -5.040896 
rfingers 0.000000 
rthumb 6.869913 -34.909383 
lclavicle 0.000000 0.000000 
lhumerus -14.118788 22.792651 77.451167 
lradius 35.016444 
lwrist -38.340542 
lhand -12.273593 6.116578 
lfingers 0.000000 
lthumb 13.793314 35.639282 
rfemur -37.190219 -1.712325 11.217302 
rtibia 27.432856 
rfoot -18.541219 -14.135777 
rtoes 8.690935 
lfemur 14.260011 -1.173738 -29.110198 
ltibia 0.000000 
lfoot -17.777649 15.257549 
ltoes -40.480439 
255
root -15.169480 17.287220 -7.696717 -8.378973 -52.530856 19.338109
lowerback -7.759620 -3.042752 -10.279542 
upperback 2.934255 -2.779751 -1.707376 
thorax 7.943761 -1.793672 3.528528 
lowerneck 0.146991 -7.936651 -8.114810 
upperneck -5.247679 -10.192696 14.172427 
head -0.374301 -5.164144 5.511354 
rclavicle 0.000000 0.000000 
rhumerus -51.957093 -41.913811 -58.051558 
rradius 28.232045 
rwrist 46.895610 
rhand -19.406995 -4.882756 
rfingers 0.000000 
rthumb 6.912246 -34.749854 
lclavicle 0.000000 0.000000 
lhumerus -14.268636 22.793864 77.590196 
lradius 35.124868 
lwrist -38.301032 
lhand -12.385693 6.234003 
lfingers 0.000000 
lthumb 13.685252 35.764000 
rfemur -36.841504 -2.000272 11.435359 
rtibia 27.760266 
rfoot -18.485539 -14.082444 
rtoes 8.547770 
lfemur 14.636449 -1.122340 -28.966597 
ltibia 0.000000 
lfoot -17.179505 15.229966 
ltoes -41.090936 
256
root -15.268848 17.280214 -7.649508 -8.281272 -52.563958 19.272995
lowerback -7.978402 -3.045808 -10.208769 
upperback 2.869125 -2.771201 -1.683831 
thorax 7.994955 -1.786958 3.508644 
lowerneck 0.207954 -7.918585 -8.069596 
upperneck -5.157358 -10.183760 14.035322 
head -0.369913 -5.159501 5.463609 
rclavicle 0.000000 0.000000 
rhumerus -52.522545 -42.165052 -57.488250 
rradius 28.137090 
rwrist 47.048691 
rhand -19.429405 -5.029278 
rfingers 0.000000 
rthumb 6.890644 -34.897142 
lclavicle 0.000000 0.000000 
lhumerus -14.390424 22.713297 77.697057 
lradius 35.183107 
lwrist -38.187556 
lhand -12.432948 6.285427 
lfingers 0.000000 
lthumb 13.639789 35.818535 
rfemur -36.576586 -2.339730 11.713163 
rtibia 28.107951 
rfoot -18.426419 -14.110780 
rtoes 9.475878 
lfemur 13.376378 -1.052944 -28.757970 
ltibia 3.109680 
lfoot -18.141434 14.691192 
ltoes -41.438853 
257
root -15.374846 17.273899 -7.602708 -8.430260 -52.638021 19.388157
lowerback -8.098530 -3.037809 -10.233194 
upperback 2.817746 -2.746284 -1.683456 
thorax 8.006506 -1.774810 3.523248 
lowerneck 0.200860 -7.905466 -8.135269 
upperneck -4.980033 -10.187138 13.948189 
head -0.318767 -5.156067 5.442314 
rclavicle 0.000000 0.000000 
rhumerus -53.015433 -42.308903 -56.986700 
rradius 28.031721 
rwrist 47.388933 
rhand -19.445567 -4.914686 
rfingers 0.000000 
rthumb 6.875018 -34.783076 
lclavicle 0.000000 0.000000 
lhumerus -14.655878 22.436902 77.753846 
lradius 35.338384 
lwrist -38.058746 
lhand -12.310343 6.280762 
lfingers 0.000000 
lthumb 13.757940 35.805886 
rfemur -36.223245 -2.553229 11.882778 
rtibia 28.449606 
rfoot -18.403034 -14.403546 
rtoes 11.019713 
lfemur 12.977944 -0.912681 -28.667942 
ltibia 4.762436 
lfoot -18.189022 14.441988 
ltoes -42.551566 
258
root -15.482608 17.275655 -7.551249 -8.395334 -52.668454 19.396604
lowerback -8.337173 -3.059103 -10.165754 
upperback 2.751317 -2.759454 -1.660272 
thorax 8.071152 -1.779188 3.500386 
lowerneck 0.217892 -7.889370 -8.186897 
upperneck -4.852216 -10.184162 13.810008 
head -0.290466 -5.151040 5.406293 
rclavicle 0.000000 0.000000 
rhumerus -53.478414 -42.458662 -56.480347 
rradius 27.899575 
rwrist 47.598668 
rhand -19.321825 -5.011300 
rfingers 0.000000 
rthumb 6.994502 -34.875765 
lclavicle 0.000000 0.000000 
lhumerus -14.900819 22.287961 77.828518 
lradius 35.477760 
lwrist -37.859650 
lhand -12.260392 6.236282 
lfingers 0.000000 
lthumb 13.806084 35.758152 
rfemur -36.036471 -3.081795 12.230692 
rtibia 28.752931 
rfoot -18.020800 -14.906831 
rtoes 12.300488 
lfemur 12.861301 -0.842353 -28.507802 
ltibia 5.650674 
lfoot -17.896161 14.218421 
ltoes -42.880865 
259
root -15.594850 17.282768 -7.504472 -8.333841 -52.756320 19.279826
lowerback -8.489556 -3.064616 -10.100257 
upperback 2.695791 -2.768179 -1.570663 
thorax 8.100461 -1.783257 3.553815 
lowerneck 0.354807 -7.933561 -8.437439 
upperneck -4.753664 -10.266707 13.860660 
head -0.259049 -5.192980 5.461561 
rclavicle 0.000000 0.000000 
rhumerus -53.731054 -42.348368 -56.261511 
rradius 27.867791 
rwrist 47.419309 
rhand -19.279837 -4.991785 
rfingers 0.000000 
rthumb 7.035028 -34.854908 
lclavicle 0.000000 0.000000 
lhumerus -15.132398 22.275080 77.985958 
lradius 35.539646 
lwrist -37.763548 
lhand -12.427302 6.292904 
lfingers 0.000000 
lthumb 13.645194 35.825627 
rfemur -35.816667 -3.312976 12.611011 
rtibia 28.979961 
rfoot -17.667608 -15.939132 
rtoes 13.101461 
lfemur 12.843714 -0.721185 -28.219814 
ltibia 6.456839 
lfoot -17.508423 13.951236 
ltoes -43.049609 
260
root -15.708156 17.293612 -7.457424 -8.197469 -52.826276 19.135268
lowerback -8.696887 -3.036368 -9.940792 
upperback 2.613878 -2.731455 -1.555861 
thorax 8.116348 -1.756431 3.481750 
lowerneck 0.455972 -7.801479 -8.456102 
upperneck -4.818198 -10.087798 13.852513 
head -0.314048 -5.107657 5.474647 
rclavicle 0.000000 0.000000 
rhumerus -54.425124 -42.592836 -55.691792 
rradius 27.841591 
rwrist 47.883697 
rhand -19.369034 -5.206576 
rfingers 0.000000 
rthumb 6.948948 -35.072507 
lclavicle 0.000000 0.000000 
lhumerus -15.446740 22.014535 78.028402 
lradius 35.679329 
lwrist -37.732190 
lhand -12.309225 6.186090 
lfingers 0.000000 
lthumb 13.758989 35.711122 
rfemur -35.655159 -3.653100 13.013794 
rtibia 29.078856 
rfoot -17.511207 -16.685471 
rtoes 12.981201 
lfemur 12.736232 -0.625773 -27.923836 
ltibia 7.317884 
lfoot -16.998510 13.722694 
ltoes -43.372606 
261
root -15.820455 17.305256 -7.407494 -7.952303 -52.968690 18.888622
lowerback -8.990380 -2.969624 -9.672787 
upperback 2.557877 -2.644139 -1.550932 
thorax 8.196755 -1.702723 3.343509 
lowerneck 0.498901 -7.746920 -8.394353 
upperneck -4.824034 -10.013678 13.845355 
head -0.334736 -5.072713 5.467353 
rclavicle 0.000000 0.000000 
rhumerus -55.079930 -43.004467 -55.019435 
rradius 27.657518 
rwrist 48.300811 
rhand -19.373363 -5.056270 
rfingers 0.000000 
rthumb 6.944764 -34.922340 
lclavicle 0.000000 0.000000 
lhumerus -15.700435 21.786557 78.069103 
lradius 35.796787 
lwrist -37.649001 
lhand -12.191398 6.005132 
lfingers 0.000000 
lthumb 13.872539 35.522445 
rfemur -35.494172 -3.880423 13.457297 
rtibia 29.102315 
rfoot -17.730305 -16.686469 
rtoes 11.763418 
lfemur 12.479331 -0.468839 -27.557842 
ltibia 8.395629 
lfoot -16.532614 13.442903 
ltoes -43.485482 
262
root -15.927923 17.314124 -7.362615 -7.776158 -53.155018 18.622928
lowerback -9.167502 -2.938215 -9.423233 
upperback 2.530048 -2.622916 -1.466390 
thorax 8.254903 -1.685164 3.292931 
lowerneck 0.416242 -7.762700 -8.468339 
upperneck -4.624845 -10.056273 13.670389 
head -0.265092 -5.085339 5.415787 
rclavicle 0.000000 0.000000 
rhumerus -55.238456 -43.038906 -54.827439 
rradius 27.635412 
rwrist 48.113720 
rhand -19.145941 -5.200948 
rfingers 0.000000 
rthumb 7.164313 -35.059693 
lclavicle 0.000000 0.000000 
lhumerus -16.022653 21.548090 78.200284 
lradius 36.047647 
lwrist -37.204608 
lhand -12.185055 6.164961 
lfingers 0.000000 
lthumb 13.878736 35.681832 
rfemur -35.216393 -3.897031 13.839702 
rtibia 29.085126 
rfoot -18.159735 -16.019626 
rtoes 11.079309 
lfemur 12.197618 -0.258461 -27.177157 
ltibia 9.667317 
lfoot -16.268381 13.143517 
ltoes -43.323675 
263
root -16.021446 17.321100 -7.324114 -7.608249 -53.317359 18.367322
lowerback -9.302310 -2.941670 -9.200300 
upperback 2.502570 -2.653130 -1.350580 
thorax 8.299200 -1.694560 3.283230 
lowerneck 0.286685 -7.752520 -8.635890 
upperneck -4.386620 -10.067500 13.487600 
head -0.175528 -5.078810 5.374510 
rclavicle 0.000000 0.000000 
rhumerus -55.186900 -42.886200 -54.841500 
rradius 27.701900 
rwrist 47.765800 
rhand -18.812300 -5.490380 
rfingers 0.000000 
rthumb 7.486390 -35.338400 
lclavicle 0.000000 0.000000 
lhumerus -16.339400 21.430700 78.341000 
lradius 36.283300 
lwrist -36.799900 
lhand -12.185600 6.340240 
lfingers 0.000000 
lthumb 13.878300 35.857100 
rfemur -34.964500 -3.920520 14.192200 
rtibia 29.063000 
rfoot -18.508200 -15.307000 
rtoes 10.580100 
lfemur 11.932100 -0.075823 -26.830000 
ltibia 10.827040 
lfoot -16.044500 12.887700 
ltoes -43.219800 
